# xmcd
#
# Track frame offsets:
#	150
#	15375
#	33143
#	50350
#	65579
#	76181
#	90543
#	104254
#	118946
#	132955
#	149048
#	162005
#	175957
#	189908
#	202842
#	214649
#	227308
#	243798
#	256041
#	265093
#	277884
#	287688
#
# Disc length: 4055 seconds
#
# Revision: 0
# Processed by: cddbd v1.5.2PL0 Copyright (c) Steve Scherf et al.
# Submitted via: dBpowerAMP V4.0
#
DISCID=1d0fd516
DTITLE=Various Artist - Baila Country en línea
DYEAR=1900
DGENRE=Country
TTITLE0="Achy Breaky Heart"
TTITLE1="Chatta Hoochee"
TTITLE2="King Of The Road"
TTITLE3="Yes!"
TTITLE4="Two Of A Kind Workin' On A Full House"
TTITLE5="Ole Slew Foot"
TTITLE6="Brother Jukebox"
TTITLE7="Danger At My Door"
TTITLE8="Chasin' That Neon Rainbow"
TTITLE9="Sticks and Stones"
TTITLE10="Runnin' Behind"
TTITLE11="Country Roads"
TTITLE12="Jukebox Junkie"
TTITLE13="Hello, Honky Tonk"
TTITLE14="Jambalaya"
TTITLE15="Only Worse"
TTITLE16="Country Boy"
TTITLE17="My Second Home"
TTITLE18="Heartland"
TTITLE19="Don't Rock The Jukebox"
TTITLE20="Rubbin'-A-Dubbin'"
TTITLE21="Mercury Blues"
EXTD=
EXTT0=
EXTT1=
EXTT2=
EXTT3=
EXTT4=
EXTT5=
EXTT6=
EXTT7=
EXTT8=
EXTT9=
EXTT10=
EXTT11=
EXTT12=
EXTT13=
EXTT14=
EXTT15=
EXTT16=
EXTT17=
EXTT18=
EXTT19=
EXTT20=
EXTT21=
PLAYORDER=
